<svg id="Layer_1" data-name="Layer 1" xmlns="http://www.w3.org/2000/svg" xmlns:xlink="http://www.w3.org/1999/xlink" viewBox="0 0 48 47"><defs><style>.cls-1{fill:none;}.cls-2{clip-path:url(#clip-path);}.cls-3{fill:#fe705a;}.cls-4,.cls-5{fill:#fff;}.cls-5{font-size:23.22px;font-family:Bauhaus93, "Bauhaus 93";letter-spacing:0.09em;}</style><clipPath id="clip-path"><rect class="cls-1" x="1.21" y="0.71" width="45.59" height="45.59"/></clipPath></defs><title>logo</title><g class="cls-2"><path class="cls-3" d="M1.21,15.5c0-5.91,3.64-11.23,9.38-12.64C20.19.5,34.68-1.44,41.81,5.69c6,6,5.58,17.28,3.87,26.42C44.06,40.83,36,46.29,27.09,46.29H8.33a7.12,7.12,0,0,1-7.12-7.12Z"/><path class="cls-4" d="M29.55,31.93a2.16,2.16,0,0,0,.12-.76c.06-.51.12-1.11.18-1.78S30,28,30,27.31s.08-1.3.1-1.77V24.4c0-.48,0-1,0-1.62V20.89c0-.66,0-1.27,0-1.84s0-1.11,0-1.56v-1a1.59,1.59,0,0,0-.1-.43c0-.2-.09-.42-.15-.64a4.54,4.54,0,0,0-.15-.61,2.76,2.76,0,0,0-.15-.43,8,8,0,0,0-2.18.12c-.73.14-1.46.31-2.17.49s-1.43.34-2.14.46a5.54,5.54,0,0,1-2,0c-.16-.35,0-.69.46-1a6.63,6.63,0,0,1,2.11-.95,20,20,0,0,1,3.21-.67,23.64,23.64,0,0,1,3.8-.25A20.64,20.64,0,0,1,34.5,13a11.16,11.16,0,0,1,3.4,1.23,6.94,6.94,0,0,1,2.42,2.17,5.8,5.8,0,0,1,.91,3.33,5.2,5.2,0,0,1-.24,1.5,10.57,10.57,0,0,1-.64,1.59,11.51,11.51,0,0,1-.86,1.53,8.94,8.94,0,0,1-.92,1.2l-.7.76-1.13,1.13q-.62.64-1.32,1.35L34.07,30.1c-.4.4-.78.77-1.13,1.1l-.73.73A11.65,11.65,0,0,1,32,33.28a2.11,2.11,0,0,1-.46.95.94.94,0,0,1-.79.3A2.15,2.15,0,0,1,29.55,34a9,9,0,0,0-1.44,1.29q-.73.86-1.53,1.62a6.91,6.91,0,0,1-1.65,1.25,1.91,1.91,0,0,1-1.72.1V37.22Zm2.66-2.14a9.94,9.94,0,0,0,3.39-2.33A12.56,12.56,0,0,0,38,24.07,11,11,0,0,0,39,20.37,6.55,6.55,0,0,0,38.57,17a4.44,4.44,0,0,0-2.2-2.2,7,7,0,0,0-4.16-.43Z"/><path class="cls-4" d="M10.87,33.86l-.09-1.65c0-.76,0-1.6-.09-2.54s0-2-.1-3-.08-2-.12-3,0-1.77-.06-2.51,0-1.31,0-1.68c0-.12,0-.33,0-.61V17c0-.31,0-.52,0-.64a4.38,4.38,0,0,0-.89.64L8.42,18c-.39.35-.78.67-1.19,1a3.23,3.23,0,0,1-1.1.55,1.07,1.07,0,0,1-.64-1,2.45,2.45,0,0,1,.67-1.35,10.66,10.66,0,0,1,1.68-1.5,24.52,24.52,0,0,1,2.33-1.47c.85-.46,1.73-.89,2.63-1.28a25.49,25.49,0,0,1,2.54-.95,10.64,10.64,0,0,1,2.14-.49,2.5,2.5,0,0,1,1.41.12,3,3,0,0,1,.82,2.21,8.71,8.71,0,0,1-.58,2.81,23.68,23.68,0,0,1-1.44,3.12L16,22.84q-.83,1.5-1.41,2.85A5.32,5.32,0,0,0,14,28a1.55,1.55,0,0,0,.89,1.41,5.27,5.27,0,0,0,2.91.22A12.09,12.09,0,0,0,20,28.81c.75-.37,1.49-.76,2.2-1.19a21.93,21.93,0,0,0,2-1.41,17.16,17.16,0,0,0,1.59-1.38c.71.19,1.11.45,1.19.8a1.33,1.33,0,0,1-.42,1.16,7,7,0,0,1-1.6,1.35,22.26,22.26,0,0,1-2.41,1.37,29.74,29.74,0,0,1-2.82,1.17,20.26,20.26,0,0,1-2.78.79,10,10,0,0,1-2.39.25A2.23,2.23,0,0,1,13,31.2c0,.12,0,.33,0,.64a9.32,9.32,0,0,1-.12,1,3.77,3.77,0,0,1-.31,1,1.25,1.25,0,0,1-.61.61.62.62,0,0,1-.64-.06A1.83,1.83,0,0,1,10.87,33.86Zm1.62-6.73,5.63-12.58a1.57,1.57,0,0,0-.73-1,2,2,0,0,0-1.14-.27,3.53,3.53,0,0,0-1.31.27,6.93,6.93,0,0,0-1.26.68,4,4,0,0,0-.91.82,1.26,1.26,0,0,0-.37.8Z"/></g><rect class="cls-3" x="4.85" y="9.92" width="36.83" height="29.49"/><text class="cls-5" transform="translate(14.19 44.31) rotate(-49.89)">Ifty</text></svg>